<svg width="16" height="16" viewBox="0 0 16 16" fill="none" xmlns="http://www.w3.org/2000/svg">
<g clip-path="url(#clip0_6_75891)">
<path d="M14.3333 12.3332C14.3333 12.3332 12.6667 9.99984 12.6667 7.99984V5.33317C12.6667 4.09549 12.175 2.90851 11.2998 2.03334C10.4246 1.15817 9.23766 0.666504 7.99999 0.666504V0.666504C6.76231 0.666504 5.57533 1.15817 4.70016 2.03334C3.82499 2.90851 3.33332 4.09549 3.33332 5.33317V7.99984C3.33332 9.99984 1.66666 12.3332 1.66666 12.3332H14.3333Z" stroke="#1B2023" stroke-miterlimit="10" stroke-linecap="square"/>
<path d="M9.66666 13.6665C9.66666 14.1085 9.49107 14.5325 9.17851 14.845C8.86595 15.1576 8.44202 15.3332 7.99999 15.3332C7.55797 15.3332 7.13404 15.1576 6.82148 14.845C6.50892 14.5325 6.33333 14.1085 6.33333 13.6665" stroke="#1B2023" stroke-miterlimit="10"/>
<circle cx="12.5" cy="3.5" r="2.5" fill="#00487C"/>
</g>
<defs>
<clipPath id="clip0_6_75891">
<rect width="16" height="16" fill="white"/>
</clipPath>
</defs>
</svg>
