<svg width="28" height="28" viewBox="0 0 28 28" fill="none" xmlns="http://www.w3.org/2000/svg">
<path fill-rule="evenodd" clip-rule="evenodd" d="M6.98914 9.70808C7.83362 8.81768 8.13266 8.56792 8.49218 8.45256C8.74137 8.38702 9.00278 8.38317 9.25378 8.44136C9.58418 8.53768 9.67042 8.61048 10.7546 9.68904C11.7065 10.6366 11.8006 10.7396 11.8925 10.921C12.0701 11.2476 12.0987 11.6348 11.9709 11.9839C11.8768 12.2471 11.7379 12.4218 11.1611 13.0019L10.7848 13.3794C10.6858 13.4799 10.6623 13.6325 10.7266 13.7579C11.562 15.1833 12.7469 16.372 14.1694 17.212C14.3335 17.3001 14.5357 17.2715 14.6689 17.1415L15.0307 16.7853C15.2543 16.5559 15.491 16.3398 15.7397 16.1379C16.1297 15.8967 16.6165 15.8734 17.0277 16.0763C17.2281 16.1704 17.2953 16.232 18.2776 17.2109C19.2856 18.2189 19.3181 18.2514 19.4312 18.4832C19.6424 18.8673 19.6403 19.3332 19.4256 19.7152C19.3136 19.9303 19.2509 20.0087 18.6819 20.5899C18.3381 20.9416 18.0099 21.2619 17.9629 21.309C17.493 21.6974 16.8907 21.8881 16.2829 21.841C15.1709 21.7393 14.0948 21.3952 13.1301 20.833C10.9918 19.7001 9.17163 18.0493 7.83586 16.0315C7.54375 15.6098 7.28393 15.1665 7.05858 14.7055C6.45816 13.6762 6.14775 12.5034 6.16034 11.3119C6.2055 10.6864 6.50504 10.1068 6.98914 9.70808Z" stroke="#676767" stroke-width="1.5" stroke-linecap="round" stroke-linejoin="round"/>
<path d="M16.6227 5.36944C16.186 5.21271 15.7051 5.43964 15.5483 5.87629C15.3916 6.31294 15.6185 6.79395 16.0552 6.95068L16.6227 5.36944ZM21.0412 11.8532C21.2053 12.2872 21.69 12.506 22.124 12.3419C22.5579 12.1778 22.7768 11.6931 22.6127 11.2591L21.0412 11.8532ZM15.292 7.86405C14.8394 7.76186 14.3898 8.04584 14.2876 8.49837C14.1854 8.95089 14.4694 9.40059 14.9219 9.50279L15.292 7.86405ZM18.558 13.0787C18.6677 13.5295 19.1221 13.806 19.5728 13.6962C20.0236 13.5864 20.3 13.1322 20.1904 12.6814L18.558 13.0787ZM16.0552 6.95068C18.3548 7.77606 20.1771 9.56789 21.0412 11.8532L22.6127 11.2591C21.5747 8.51361 19.3854 6.36101 16.6227 5.36944L16.0552 6.95068ZM14.9219 9.50279C16.7147 9.90765 18.1233 11.293 18.558 13.0787L20.1904 12.6814C19.6047 10.2758 17.707 8.40946 15.292 7.86405L14.9219 9.50279Z" fill="#676767"/>
</svg>
