<svg width="16" height="13" viewBox="0 0 16 13" fill="none" xmlns="http://www.w3.org/2000/svg">
<path d="M10.4602 7.50725C10.4602 8.91399 9.31579 10.0584 7.90905 10.0584C6.50232 10.0584 5.35839 8.91399 5.35839 7.50725C5.35839 6.10052 6.50232 4.95615 7.90905 4.95615C9.31579 4.95615 10.4602 6.10095 10.4602 7.50725ZM15.8182 3.88481V11.1306C15.8182 12.0965 15.035 12.8797 14.069 12.8797H1.74907C0.78311 12.8797 -6.10352e-05 12.0965 -6.10352e-05 11.1306V3.88481C-6.10352e-05 2.91886 0.78311 2.13568 1.74907 2.13568H3.90049V1.53049C3.90049 0.685221 4.58528 0 5.43098 0H10.3871C11.2328 0 11.9176 0.685221 11.9176 1.53049V2.13525H14.069C15.035 2.13568 15.8182 2.91886 15.8182 3.88481ZM11.772 7.50725C11.772 5.37725 10.0391 3.64431 7.90905 3.64431C5.77949 3.64431 4.04654 5.37725 4.04654 7.50725C4.04654 9.63725 5.77949 11.3702 7.90905 11.3702C10.0391 11.3702 11.772 9.63725 11.772 7.50725Z" fill="white"/>
</svg>
