<svg width="30" height="30" viewBox="0 0 30 30" fill="none" xmlns="http://www.w3.org/2000/svg">
<path d="M17.5 5H12.5C7.7859 5 5.42889 5 3.96442 6.46446C2.90999 7.51889 2.61477 9.03603 2.5321 11.5625H27.4678C27.3852 9.03603 27.09 7.51889 26.0355 6.46446C24.5711 5 22.214 5 17.5 5Z" fill="#37723B"/>
<path d="M12.5 25H17.5C22.214 25 24.5711 25 26.0355 23.5355C27.5 22.0711 27.5 19.714 27.5 15C27.5 14.4476 27.5 13.9275 27.4976 13.4375H2.50236C2.5 13.9275 2.5 14.4476 2.5 15C2.5 19.714 2.5 22.0711 3.96446 23.5355C5.42894 25 7.78595 25 12.5 25Z" fill="#37723B"/>
<path fill-rule="evenodd" clip-rule="evenodd" d="M6.5625 20C6.5625 19.4822 6.98224 19.0625 7.5 19.0625H12.5C13.0177 19.0625 13.4375 19.4822 13.4375 20C13.4375 20.5178 13.0177 20.9375 12.5 20.9375H7.5C6.98224 20.9375 6.5625 20.5178 6.5625 20Z" fill="white"/>
<path fill-rule="evenodd" clip-rule="evenodd" d="M14.6875 20C14.6875 19.4822 15.1072 19.0625 15.625 19.0625H17.5C18.0178 19.0625 18.4375 19.4822 18.4375 20C18.4375 20.5178 18.0178 20.9375 17.5 20.9375H15.625C15.1072 20.9375 14.6875 20.5178 14.6875 20Z" fill="white"/>
</svg>
