<svg width="30" height="30" viewBox="0 0 30 30" fill="none" xmlns="http://www.w3.org/2000/svg">
<path opacity="0.967" fill-rule="evenodd" clip-rule="evenodd" d="M24.873 1.9043C25.6153 1.9043 26.3574 1.9043 27.0996 1.9043C27.0996 3.99414 27.0996 6.08396 27.0996 8.17383C26.3574 8.17383 25.6153 8.17383 24.873 8.17383C24.873 6.08396 24.873 3.99414 24.873 1.9043Z" fill="#37723B"/>
<path opacity="0.973" fill-rule="evenodd" clip-rule="evenodd" d="M19.541 2.54883C21.0464 2.55006 22.5503 2.58912 24.0527 2.66602C24.0527 4.24805 24.0527 5.83008 24.0527 7.41211C23.1731 7.58959 22.2844 7.70678 21.3867 7.76367C20.7889 7.71264 20.1933 7.66383 19.5996 7.61719C18.6251 8.45484 17.6681 9.31424 16.7285 10.1953C16.1953 10.5098 15.7168 10.4414 15.293 9.99023C15.0195 9.58008 15.0195 9.16992 15.293 8.75977C16.3086 7.82227 17.3242 6.88477 18.3398 5.94727C18.5275 5.70434 18.6056 5.4309 18.5742 5.12695C18.5282 5.0223 18.4599 4.93441 18.3691 4.86328C16.8066 4.84375 15.2442 4.82422 13.6816 4.80469C14.4851 4.13781 15.3054 3.49328 16.1426 2.87109C16.408 2.77545 16.6814 2.71686 16.9629 2.69531C17.8317 2.64913 18.6911 2.6003 19.541 2.54883Z" fill="#37723B"/>
<path opacity="0.954" fill-rule="evenodd" clip-rule="evenodd" d="M6.00583 5.5957C9.85368 5.57617 13.7014 5.5957 17.5488 5.6543C17.2451 5.94832 16.9326 6.2315 16.6113 6.50391C13.9711 6.50478 11.3344 6.54387 8.70115 6.62109C8.37888 6.94336 8.05661 7.26562 7.73435 7.58789C7.69527 8.62307 7.69527 9.65818 7.73435 10.6934C8.0371 11.0742 8.37888 11.416 8.75974 11.7187C12.0996 11.7578 15.4394 11.7578 18.7793 11.7187C19.2801 11.4056 19.739 11.0442 20.1562 10.6348C20.1855 9.91236 20.1953 9.18973 20.1855 8.4668C20.7705 8.50857 21.3565 8.52814 21.9433 8.52539C21.9433 9.91213 21.9433 11.2988 21.9433 12.6855C16.6112 12.6953 11.2792 12.6855 5.94724 12.6562C5.87909 10.346 5.86931 8.0315 5.91794 5.71289C5.95995 5.681 5.98925 5.64194 6.00583 5.5957Z" fill="#37723B"/>
<path opacity="0.97" fill-rule="evenodd" clip-rule="evenodd" d="M8.99416 7.35351C11.2016 7.334 13.4085 7.35351 15.6152 7.4121C15.2841 7.71398 14.9618 8.02646 14.6485 8.3496C14.0924 9.36778 14.278 10.2271 15.2051 10.9277C13.1546 10.9961 11.1038 11.0058 9.05275 10.957C8.86718 10.7715 8.68167 10.5859 8.49611 10.4004C8.45703 9.56056 8.45703 8.72068 8.49611 7.88085C8.67412 7.71275 8.84011 7.53696 8.99416 7.35351Z" fill="#37723B"/>
<path opacity="0.871" fill-rule="evenodd" clip-rule="evenodd" d="M19.3066 8.87695C19.3843 9.0982 19.4233 9.34236 19.4238 9.60938C19.414 9.85354 19.4043 10.0976 19.3945 10.3418C19.1256 10.5398 18.8619 10.7449 18.6035 10.957C18.0751 11.0058 17.5478 10.996 17.0215 10.9277C17.8034 10.2629 18.5651 9.57926 19.3066 8.87695Z" fill="#37723B"/>
<path opacity="0.972" fill-rule="evenodd" clip-rule="evenodd" d="M7.76367 16.084C8.99414 16.084 10.2246 16.084 11.4551 16.084C11.4453 17.217 11.4551 18.3498 11.4844 19.4824C11.6446 19.8118 11.8887 19.8997 12.2168 19.7461C12.6953 19.2676 13.1738 18.7891 13.6523 18.3105C14.1113 18.7695 14.5703 19.2285 15.0293 19.6875C15.3418 19.9048 15.6055 19.856 15.8203 19.541C15.8496 18.3888 15.8594 17.2365 15.8496 16.084C17.0606 16.084 18.2715 16.084 19.4824 16.084C19.4922 17.8224 19.4824 19.5606 19.4531 21.2988C18.1901 21.906 16.9107 22.4725 15.6152 22.998C15.4899 22.3549 15.1188 21.9154 14.502 21.6797C13.0396 21.28 11.5748 20.8893 10.1074 20.5078C10.0097 20.4687 9.91213 20.4687 9.81445 20.5078C9.1323 20.7028 8.44869 20.8883 7.76367 21.0645C7.76367 19.4043 7.76367 17.7441 7.76367 16.084Z" fill="#37723B"/>
<path opacity="0.926" fill-rule="evenodd" clip-rule="evenodd" d="M12.2754 16.084C13.2129 16.084 14.1504 16.084 15.0879 16.084C15.1074 16.9052 15.0878 17.7255 15.0293 18.5449C14.6883 18.2333 14.3563 17.9111 14.0332 17.5781C13.8262 17.4302 13.6114 17.4107 13.3887 17.5195C13.046 17.872 12.6944 18.2137 12.334 18.5449C12.2754 17.7255 12.2559 16.9052 12.2754 16.084Z" fill="#37723B"/>
<path opacity="0.965" fill-rule="evenodd" clip-rule="evenodd" d="M21.416 21.2402C22.137 21.3019 22.3225 21.6534 21.9727 22.2949C21.8653 22.4023 21.7578 22.5098 21.6504 22.6172C19.2676 24.1601 16.8848 25.7031 14.502 27.2461C14.3028 27.2781 14.1075 27.2586 13.916 27.1875C12.4586 26.7596 10.9937 26.3593 9.52148 25.9863C8.3223 26.291 7.13092 26.623 5.94727 26.9824C5.92775 26.2207 5.90818 25.459 5.88867 24.6973C5.88926 23.9127 5.92828 23.1412 6.00586 22.3828C7.3265 21.9914 8.65459 21.6301 9.99023 21.2988C11.381 21.642 12.7678 22.0032 14.1504 22.3828C14.6258 22.5128 14.8601 22.8254 14.8535 23.3203C14.8654 23.7775 14.6505 24.0704 14.209 24.1992C14.0332 24.2383 13.8574 24.2383 13.6816 24.1992C12.2949 23.8281 10.9082 23.457 9.52148 23.0859C9.00967 22.9727 8.8241 23.1582 8.96484 23.6426C9.01775 23.7129 9.08607 23.7618 9.16992 23.7891C10.7512 24.2382 12.343 24.6386 13.9453 24.9902C14.7022 24.9582 15.2394 24.597 15.5566 23.9062C17.5221 23.0307 19.4752 22.1421 21.416 21.2402Z" fill="#37723B"/>
<path opacity="0.967" fill-rule="evenodd" clip-rule="evenodd" d="M2.8418 21.7676C3.58399 21.7676 4.32617 21.7676 5.06836 21.7676C5.06836 23.8574 5.06836 25.9472 5.06836 28.0371C4.32617 28.0371 3.58399 28.0371 2.8418 28.0371C2.8418 25.9472 2.8418 23.8574 2.8418 21.7676Z" fill="#37723B"/>
</svg>
