<svg width="100" height="100" viewBox="0 0 100 100" fill="none" xmlns="http://www.w3.org/2000/svg">
<path fill-rule="evenodd" clip-rule="evenodd" d="M14.9999 49.9998C14.9983 44.4114 16.3348 38.9038 18.8977 33.9378C21.4607 28.9717 25.1755 24.6916 29.7315 21.4553C34.2875 18.2191 39.5522 16.1209 45.0852 15.3361C50.6182 14.5514 56.2587 15.103 61.5349 16.9448C62.7874 17.3811 64.1619 17.3019 65.356 16.7248C66.5502 16.1476 67.4661 15.1198 67.9024 13.8673C68.3387 12.6148 68.2596 11.2403 67.6824 10.0462C67.1053 8.85202 66.0774 7.93606 64.8249 7.49978C55.6116 4.28549 45.6032 4.15304 36.3081 7.12239C27.013 10.0917 18.9349 16.002 13.2914 23.9623C7.64786 31.9226 4.74474 41.5017 5.01957 51.2557C5.2944 61.0097 8.73229 70.4101 14.8151 78.04C20.8979 85.67 29.2959 91.116 38.7435 93.5572C48.191 95.9985 58.1761 95.3027 67.1938 91.5747C76.2115 87.8468 83.7731 81.2886 88.7389 72.8888C93.7046 64.489 95.8055 54.7026 94.7249 45.0048C94.6527 44.3521 94.4526 43.7201 94.1361 43.1447C93.8196 42.5694 93.3929 42.062 92.8803 41.6516C92.3677 41.2411 91.7794 40.9357 91.1487 40.7526C90.5181 40.5696 89.8576 40.5126 89.2049 40.5848C88.5522 40.657 87.9202 40.8571 87.3448 41.1736C86.7695 41.4901 86.2621 41.9168 85.8517 42.4294C85.4413 42.9419 85.1358 43.5303 84.9528 44.161C84.7697 44.7916 84.7127 45.4521 84.7849 46.1048C85.3116 50.8343 84.8682 55.6215 83.482 60.1738C82.0958 64.7261 79.7958 68.9479 76.7226 72.5812C73.6494 76.2145 69.8676 79.183 65.6083 81.3051C61.349 83.4273 56.7017 84.6586 51.9504 84.9238C47.1991 85.189 42.4436 84.4825 37.9746 82.8475C33.5056 81.2125 29.4169 78.6833 25.9585 75.4146C22.5001 72.1459 19.7446 68.2062 17.8604 63.8364C15.9762 59.4666 15.0029 54.7585 14.9999 49.9998ZM88.7499 23.3098C89.6278 22.3152 90.0746 21.0127 89.9921 19.6887C89.9096 18.3646 89.3045 17.1276 88.3099 16.2498C87.3154 15.3719 86.0128 14.9251 84.6888 15.0076C83.3648 15.0901 82.1278 15.6952 81.2499 16.6898L49.0749 53.0898L33.1599 40.1248C32.651 39.7098 32.0654 39.3991 31.4365 39.2105C30.8075 39.0218 30.1476 38.9589 29.4943 39.0253C28.175 39.1594 26.963 39.8121 26.1249 40.8398C25.7099 41.3487 25.3993 41.9343 25.2106 42.5632C25.022 43.1922 24.959 43.8521 25.0254 44.5054C25.1595 45.8247 25.8122 47.0367 26.8399 47.8748L46.4849 63.8748C47.4857 64.6891 48.7626 65.0849 50.0485 64.9796C51.3344 64.8743 52.5299 64.276 53.3849 63.3098L88.7499 23.3098Z" fill="black"/>
</svg>
