<svg width="16" height="16" viewBox="0 0 16 16" fill="none" xmlns="http://www.w3.org/2000/svg">
<g clip-path="url(#clip0_6_84251)">
<path opacity="0.981" fill-rule="evenodd" clip-rule="evenodd" d="M15.2455 3.60389C15.5932 3.67596 15.6766 3.86582 15.4957 4.17349C11.2837 6.28435 8.02261 9.40634 5.71227 13.5395C5.57685 13.6499 5.43189 13.6604 5.27739 13.571C3.83142 10.9533 2.39736 8.32746 0.975201 5.69348C0.938941 5.47705 1.02255 5.33497 1.22601 5.26725C2.24063 5.5045 3.25021 5.76155 4.25475 6.0384C4.34641 6.15018 4.42639 6.27068 4.49471 6.39987C4.88662 7.21515 5.29184 8.02446 5.7104 8.82784C6.87593 7.52723 8.23679 6.4667 9.79298 5.64624C11.5296 4.74933 13.3471 4.06855 15.2455 3.60389Z" fill="#37723B"/>
</g>
<defs>
<clipPath id="clip0_6_84251">
<rect width="15.6881" height="15.6881" fill="white"/>
</clipPath>
</defs>
</svg>
