<svg width="20" height="20" viewBox="0 0 20 20" fill="none" xmlns="http://www.w3.org/2000/svg">
<g clip-path="url(#clip0_6_84626)">
<path opacity="0.989" fill-rule="evenodd" clip-rule="evenodd" d="M1.85547 -0.0195312C2.14193 -0.0195312 2.42839 -0.0195312 2.71484 -0.0195312C3.11201 0.0813453 3.47659 0.257127 3.80859 0.507812C5.85992 2.56564 7.91719 4.61641 9.98047 6.66016C12.0437 4.61641 14.101 2.56564 16.1523 0.507812C16.4843 0.257127 16.8489 0.0813453 17.2461 -0.0195312C17.5325 -0.0195312 17.819 -0.0195312 18.1055 -0.0195312C19.1081 0.227864 19.7331 0.852863 19.9805 1.85547C19.9805 2.14193 19.9805 2.42839 19.9805 2.71484C19.8796 3.11201 19.7038 3.47659 19.4531 3.80859C17.3953 5.85992 15.3445 7.91719 13.3008 9.98047C15.3445 12.0437 17.3953 14.101 19.4531 16.1523C19.7038 16.4843 19.8796 16.8489 19.9805 17.2461C19.9805 17.5325 19.9805 17.819 19.9805 18.1055C19.7331 19.1081 19.1081 19.7331 18.1055 19.9805C17.819 19.9805 17.5325 19.9805 17.2461 19.9805C16.8489 19.8796 16.4843 19.7038 16.1523 19.4531C14.101 17.3953 12.0437 15.3445 9.98047 13.3008C7.91719 15.3445 5.85992 17.3953 3.80859 19.4531C3.47659 19.7038 3.11201 19.8796 2.71484 19.9805C2.42839 19.9805 2.14193 19.9805 1.85547 19.9805C0.852863 19.7331 0.227864 19.1081 -0.0195312 18.1055C-0.0195312 17.819 -0.0195312 17.5325 -0.0195312 17.2461C0.0813453 16.8489 0.257127 16.4843 0.507812 16.1523C2.56564 14.101 4.61641 12.0437 6.66016 9.98047C4.61641 7.91719 2.56564 5.85992 0.507812 3.80859C0.257127 3.47659 0.0813453 3.11201 -0.0195312 2.71484C-0.0195312 2.42839 -0.0195312 2.14193 -0.0195312 1.85547C0.227864 0.852863 0.852863 0.227864 1.85547 -0.0195312Z" fill="black"/>
</g>
<defs>
<clipPath id="clip0_6_84626">
<rect width="20" height="20" fill="white"/>
</clipPath>
</defs>
</svg>
