<svg width="95" height="95" viewBox="0 0 95 95" fill="none" xmlns="http://www.w3.org/2000/svg">
<path d="M63.4532 39.7031C64.6126 38.5439 64.6126 36.6641 63.4532 35.5048C62.2938 34.3454 60.4144 34.3454 59.255 35.5048L41.5624 53.1971L35.745 47.3799C34.5856 46.2205 32.7059 46.2205 31.5465 47.3799C30.3872 48.5393 30.3872 50.4187 31.5465 51.5781L39.4632 59.4948C40.6227 60.6542 42.5021 60.6542 43.6615 59.4948L63.4532 39.7031Z" fill="#1C274C"/>
<path fill-rule="evenodd" clip-rule="evenodd" d="M47.7273 4.94775H47.2729C38.1356 4.94771 30.9748 4.94768 25.3877 5.69885C19.6689 6.46771 15.1563 8.07219 11.6144 11.6141C8.07243 15.1561 6.46796 19.6687 5.69909 25.3874C4.94792 30.9745 4.94796 38.1353 4.948 47.2726V47.727C4.94796 56.8645 4.94792 64.0251 5.69909 69.6123C6.46796 75.3309 8.07243 79.8438 11.6144 83.3857C15.1563 86.9276 19.6689 88.5319 25.3877 89.301C30.9748 90.0519 38.1356 90.0519 47.2729 90.0519H47.7273C56.8647 90.0519 64.0253 90.0519 69.6125 89.301C75.3311 88.5319 79.844 86.9276 83.3859 83.3857C86.9279 79.8438 88.5322 75.3309 89.3013 69.6123C90.0522 64.0251 90.0522 56.8645 90.0522 47.727V47.2726C90.0522 38.1353 90.0522 30.9745 89.3013 25.3874C88.5322 19.6687 86.9279 15.1561 83.3859 11.6141C79.844 8.07219 75.3311 6.46771 69.6125 5.69885C64.0253 4.94768 56.8647 4.94771 47.7273 4.94775ZM15.8128 15.8126C18.0677 13.5577 21.1185 12.2637 26.1788 11.5834C31.3246 10.8915 38.0863 10.8853 47.5001 10.8853C56.9138 10.8853 63.6754 10.8915 68.8212 11.5834C73.8816 12.2637 76.9323 13.5577 79.1873 15.8126C81.4424 18.0675 82.7364 21.1182 83.4164 26.1786C84.1083 31.3243 84.1147 38.086 84.1147 47.4998C84.1147 56.9135 84.1083 63.6752 83.4164 68.821C82.7364 73.8813 81.4424 76.932 79.1873 79.1871C76.9323 81.4421 73.8816 82.7361 68.8212 83.4162C63.6754 84.1081 56.9138 84.1144 47.5001 84.1144C38.0863 84.1144 31.3246 84.1081 26.1788 83.4162C21.1185 82.7361 18.0677 81.4421 15.8128 79.1871C13.5579 76.932 12.264 73.8813 11.5836 68.821C10.8918 63.6752 10.8855 56.9135 10.8855 47.4998C10.8855 38.086 10.8918 31.3243 11.5836 26.1786C12.264 21.1182 13.5579 18.0675 15.8128 15.8126Z" fill="#1C274C"/>
</svg>
