<svg width="20" height="20" viewBox="0 0 20 20" fill="none" xmlns="http://www.w3.org/2000/svg">
<path d="M4.16667 18.3334H15.8333C16.0543 18.3334 16.2663 18.2456 16.4226 18.0893C16.5789 17.9331 16.6667 17.7211 16.6667 17.5001V5.34508C16.6666 5.12409 16.5788 4.91216 16.4225 4.75591L13.5775 1.91091C13.4213 1.75462 13.2093 1.6668 12.9883 1.66675H4.16667C3.94565 1.66675 3.73369 1.75455 3.57741 1.91083C3.42113 2.06711 3.33333 2.27907 3.33333 2.50008V17.5001C3.33333 17.7211 3.42113 17.9331 3.57741 18.0893C3.73369 18.2456 3.94565 18.3334 4.16667 18.3334ZM7.3275 8.50591C7.1757 8.34875 7.0917 8.13824 7.0936 7.91975C7.0955 7.70125 7.18314 7.49224 7.33765 7.33773C7.49216 7.18323 7.70117 7.09559 7.91966 7.09369C8.13816 7.09179 8.34866 7.17578 8.50583 7.32758L10 8.82175L11.4942 7.32758C11.6513 7.17578 11.8618 7.09179 12.0803 7.09369C12.2988 7.09559 12.5078 7.18323 12.6623 7.33773C12.8169 7.49224 12.9045 7.70125 12.9064 7.91975C12.9083 8.13824 12.8243 8.34875 12.6725 8.50591L11.1783 10.0001L12.6725 11.4942C12.7521 11.5711 12.8156 11.6631 12.8592 11.7647C12.9029 11.8664 12.9259 11.9758 12.9269 12.0864C12.9278 12.1971 12.9067 12.3068 12.8648 12.4092C12.8229 12.5116 12.7611 12.6047 12.6828 12.6829C12.6046 12.7612 12.5115 12.823 12.4091 12.8649C12.3067 12.9068 12.197 12.9279 12.0863 12.927C11.9757 12.926 11.8663 12.903 11.7647 12.8593C11.663 12.8157 11.571 12.7522 11.4942 12.6726L10 11.1784L8.50583 12.6726C8.34866 12.8244 8.13816 12.9084 7.91966 12.9065C7.70117 12.9046 7.49216 12.8169 7.33765 12.6624C7.18314 12.5079 7.0955 12.2989 7.0936 12.0804C7.0917 11.8619 7.1757 11.6514 7.3275 11.4942L8.82167 10.0001L7.3275 8.50591Z" fill="#D8333E"/>
</svg>
