<svg width="17" height="17" viewBox="0 0 17 17" fill="none" xmlns="http://www.w3.org/2000/svg">
<path d="M13.4069 10.2193H3.84436C3.25756 10.2193 2.78186 10.695 2.78186 11.2818V12.8755C2.78186 13.4624 3.25756 13.938 3.84436 13.938H13.4069C13.9937 13.938 14.4694 13.4624 14.4694 12.8755V11.2818C14.4694 10.695 13.9937 10.2193 13.4069 10.2193Z" fill="#B2B2B2"/>
<path d="M13.4069 6.50055H3.84436C3.25756 6.50055 2.78186 6.97625 2.78186 7.56305V9.1568C2.78186 9.7436 3.25756 10.2193 3.84436 10.2193H13.4069C13.9937 10.2193 14.4694 9.7436 14.4694 9.1568V7.56305C14.4694 6.97625 13.9937 6.50055 13.4069 6.50055Z" fill="black"/>
<path d="M13.4069 2.7818H3.84436C3.25756 2.7818 2.78186 3.2575 2.78186 3.8443V5.43805C2.78186 6.02485 3.25756 6.50055 3.84436 6.50055H13.4069C13.9937 6.50055 14.4694 6.02485 14.4694 5.43805V3.8443C14.4694 3.2575 13.9937 2.7818 13.4069 2.7818Z" fill="#B2B2B2"/>
</svg>
