<svg width="100" height="68" viewBox="0 0 100 68" fill="none" xmlns="http://www.w3.org/2000/svg">
<path fill-rule="evenodd" clip-rule="evenodd" d="M87.2093 9.18409V63.1963L66.1265 36.8542L62.1201 40.0592L83.4083 66.6628H3.80105L25.0892 40.0592L21.0829 36.8542L0 63.1963V9.18404L43.6021 46.9818L87.2093 9.18409ZM87.2062 0V2.38958L43.6042 40.1873L0.00204397 2.38963V0H87.2062Z" fill="#213675"/>
<ellipse cx="74.4188" cy="42.4274" rx="25.5814" ry="25.5727" fill="#F9F9F9"/>
<path d="M89.0326 25.9416C92.3426 28.8527 94.4284 32.6727 95.6192 36.8762C95.6774 37.0768 95.7356 37.2774 95.7955 37.4841C97.1314 43.1364 95.8655 49.1747 92.8939 54.0737C92.0106 55.4324 90.9359 56.6418 89.8279 57.8197C89.7384 57.9202 89.6488 58.0207 89.5565 58.1243C86.2628 61.6688 80.9598 63.907 76.1696 64.1469C69.6709 64.3656 64.0321 62.6474 59.207 58.1762C59.0819 58.0585 58.9567 57.9409 58.8278 57.8197C58.6769 57.6853 58.6769 57.6853 58.523 57.5483C55.7757 54.9971 54.0145 51.3383 53.0365 47.7736C52.9788 47.5736 52.921 47.3737 52.8615 47.1677C51.5674 41.7246 52.678 35.6067 55.5389 30.8554C56.1232 29.9199 56.7615 29.042 57.4651 28.1923C57.5386 28.1034 57.612 28.0146 57.6877 27.9231C61.33 23.5853 66.705 20.9852 72.3052 20.4076C78.5691 19.9531 84.2723 21.8679 89.0326 25.9416ZM82.9727 35.3434C82.8736 35.4437 82.7744 35.544 82.6723 35.6473C82.5676 35.752 82.4629 35.8566 82.355 35.9644C82.0077 36.3119 81.6615 36.6605 81.3154 37.0092C81.0754 37.2498 80.8353 37.4903 80.5951 37.7307C79.9621 38.3648 79.3301 39 78.6982 39.6353C78.0538 40.283 77.4084 40.9298 76.7631 41.5766C75.4962 42.8467 74.2304 44.1179 72.9652 45.3898C71.7137 44.3306 71.7137 44.3306 71.1372 43.752C71.0282 43.643 70.9191 43.534 70.8068 43.4217C70.6937 43.3077 70.5806 43.1938 70.4641 43.0765C70.3449 42.957 70.2256 42.8375 70.1026 42.7144C69.7257 42.3366 69.3494 41.9583 68.9731 41.5799C68.716 41.322 68.4588 41.0642 68.2016 40.8064C67.5747 40.1779 66.9483 39.5488 66.3223 38.9194C65.6528 39.484 64.9976 40.052 64.3801 40.674C64.1899 40.865 64.1899 40.865 63.9959 41.0598C63.8678 41.1893 63.7397 41.3188 63.6077 41.4522C63.4749 41.5857 63.3422 41.7191 63.2055 41.8566C62.8814 42.1826 62.5577 42.509 62.2344 42.8357C63.2225 44.0455 64.3369 45.1293 65.4427 46.2298C65.6552 46.4419 65.8675 46.654 66.0799 46.8661C66.6356 47.421 67.1919 47.9754 67.7482 48.5296C68.3172 49.0966 68.8856 49.6641 69.4541 50.2316C70.5672 51.3425 71.6809 52.4528 72.7949 53.5629C73.7056 52.8027 74.5524 51.9996 75.3891 51.1592C75.5238 51.0245 75.6585 50.8898 75.7974 50.7511C76.2392 50.3093 76.6804 49.8669 77.1217 49.4244C77.4293 49.1166 77.7369 48.8089 78.0446 48.5012C78.7693 47.776 79.4937 47.0506 80.2179 46.3249C81.0431 45.4981 81.8687 44.6718 82.6944 43.8455C84.3915 42.1473 86.0879 40.4484 87.784 38.7492C87.4962 38.1373 87.1566 37.7375 86.6768 37.2566C86.5258 37.1052 86.3747 36.9537 86.2191 36.7977C85.9819 36.5626 85.9819 36.5626 85.74 36.3228C85.5029 36.0837 85.5029 36.0837 85.261 35.8399C85.1099 35.6893 84.9588 35.5387 84.8032 35.3836C84.6644 35.2453 84.5257 35.1069 84.3827 34.9644C83.7293 34.3945 83.5096 34.8094 82.9727 35.3434Z" fill="#37723B"/>
</svg>
