<svg width="19" height="19" viewBox="0 0 19 19" fill="none" xmlns="http://www.w3.org/2000/svg">
<g clip-path="url(#clip0_6_83682)">
<path opacity="0.992" fill-rule="evenodd" clip-rule="evenodd" d="M18.9814 3.72949C18.9814 3.9769 18.9814 4.22427 18.9814 4.47168C18.8743 4.88293 18.6517 5.22311 18.3135 5.49219C15.7158 7.22397 13.1182 8.95572 10.5205 10.6875C9.82779 11.1081 9.1351 11.1081 8.44238 10.6875C5.84473 8.95572 3.24707 7.22397 0.649414 5.49219C0.311246 5.22311 0.0885897 4.88293 -0.0185547 4.47168C-0.0185547 4.22427 -0.0185547 3.9769 -0.0185547 3.72949C0.193056 2.99226 0.67548 2.54076 1.42871 2.375C6.79721 2.35026 12.1657 2.35026 17.5342 2.375C18.287 2.54057 18.7694 2.99206 18.9814 3.72949Z" fill="#999999"/>
<path opacity="0.994" fill-rule="evenodd" clip-rule="evenodd" d="M-0.0185547 6.32715C2.67008 8.10636 5.35433 9.89377 8.03418 11.6895C8.99902 12.209 9.96387 12.209 10.9287 11.6895C13.6086 9.89377 16.2928 8.10636 18.9814 6.32715C18.9814 9.2959 18.9814 12.2646 18.9814 15.2334C18.7694 15.9708 18.287 16.4223 17.5342 16.5879C12.1657 16.6126 6.79721 16.6126 1.42871 16.5879C0.67548 16.4221 0.193056 15.9706 -0.0185547 15.2334C-0.0185547 12.2646 -0.0185547 9.2959 -0.0185547 6.32715Z" fill="#999999"/>
</g>
<defs>
<clipPath id="clip0_6_83682">
<rect width="19" height="19" fill="white"/>
</clipPath>
</defs>
</svg>
