<svg width="32" height="32" viewBox="0 0 32 32" fill="none" xmlns="http://www.w3.org/2000/svg">
<path d="M16 32C24.8366 32 32 24.8366 32 16C32 7.16344 24.8366 0 16 0C7.16344 0 0 7.16344 0 16C0 24.8366 7.16344 32 16 32Z" fill="url(#paint0_linear_6_83707)"/>
<path d="M21.9586 20.893L22.6693 16.377H18.2232V13.4478C18.2232 12.212 18.8432 11.0068 20.8346 11.0068H22.8572V7.16206C22.8572 7.16206 21.0224 6.85693 19.269 6.85693C15.6056 6.85693 13.2135 9.02029 13.2135 12.9351V16.377H9.14294V20.893H13.2135V31.8106C14.0306 31.9358 14.8666 31.9998 15.7183 31.9998C16.5699 31.9998 17.406 31.9358 18.2232 31.8106V20.893H21.9586Z" fill="white"/>
<defs>
<linearGradient id="paint0_linear_6_83707" x1="16" y1="0" x2="16" y2="31.9051" gradientUnits="userSpaceOnUse">
<stop stop-color="#18ACFE"/>
<stop offset="1" stop-color="#0163E0"/>
</linearGradient>
</defs>
</svg>
