<svg width="32" height="32" viewBox="0 0 32 32" fill="none" xmlns="http://www.w3.org/2000/svg">
<path d="M31.6187 16.2994C31.6187 14.9884 31.5123 14.0317 31.2821 13.0396H16.3115V18.9569H25.0989C24.9218 20.4274 23.9651 22.642 21.839 24.1301L21.8092 24.3282L26.5427 27.9952L26.8706 28.0279C29.8824 25.2463 31.6187 21.1537 31.6187 16.2994Z" fill="#4285F4"/>
<path d="M16.3115 31.8901C20.6166 31.8901 24.2307 30.4727 26.8706 28.0279L21.839 24.1301C20.4926 25.0691 18.6854 25.7246 16.3115 25.7246C12.0949 25.7246 8.51615 22.9432 7.24043 19.0986L7.05344 19.1145L2.13154 22.9236L2.06718 23.1025C4.68922 28.3112 10.0751 31.8901 16.3115 31.8901Z" fill="#34A853"/>
<path d="M7.24043 19.0987C6.90382 18.1066 6.70901 17.0435 6.70901 15.9451C6.70901 14.8466 6.90382 13.7837 7.22272 12.7915L7.2138 12.5803L2.23023 8.70996L2.06718 8.78752C0.986505 10.949 0.366413 13.3762 0.366413 15.9451C0.366413 18.5141 0.986505 20.9412 2.06718 23.1026L7.24043 19.0987Z" fill="#FBBC05"/>
<path d="M16.3115 6.16537C19.3055 6.16537 21.3252 7.45869 22.4768 8.53948L26.9769 4.14571C24.2131 1.57679 20.6166 0 16.3115 0C10.0751 0 4.68922 3.57875 2.06718 8.78742L7.22272 12.7915C8.51615 8.94693 12.0949 6.16537 16.3115 6.16537Z" fill="#EB4335"/>
</svg>
