<svg width="32" height="32" viewBox="0 0 32 32" fill="none" xmlns="http://www.w3.org/2000/svg">
<g clip-path="url(#clip0_253_60)">
<path opacity="0.994" fill-rule="evenodd" clip-rule="evenodd" d="M14.5938 -0.03125C15.5104 -0.03125 16.4271 -0.03125 17.3438 -0.03125C23.6128 0.748881 28.0816 3.99888 30.75 9.71875C31.3936 11.2929 31.7998 12.9179 31.9688 14.5938C31.9688 15.5104 31.9688 16.4271 31.9688 17.3438C31.1886 23.6128 27.9386 28.0816 22.2188 30.75C20.6448 31.3935 19.0198 31.7997 17.3438 31.9688C16.4271 31.9688 15.5104 31.9688 14.5938 31.9688C8.32456 31.1885 3.85581 27.9385 1.1875 22.2188C0.543957 20.6446 0.137708 19.0196 -0.03125 17.3438C-0.03125 16.4271 -0.03125 15.5104 -0.03125 14.5938C0.748881 8.32469 3.99888 3.85592 9.71875 1.1875C11.2929 0.543957 12.9179 0.137708 14.5938 -0.03125Z" fill="#007AB9"/>
<path fill-rule="evenodd" clip-rule="evenodd" d="M9.21897 6.84368C10.0865 6.6923 10.8469 6.90062 11.5002 7.46868C12.0753 8.27043 12.1169 9.10374 11.6252 9.96868C11.096 10.5663 10.4293 10.8371 9.62522 10.7812C8.10341 10.5092 7.49929 9.61343 7.81272 8.09368C8.08816 7.45205 8.55691 7.03537 9.21897 6.84368Z" fill="#EFF1F1"/>
<path fill-rule="evenodd" clip-rule="evenodd" d="M17.6562 12.3437C17.6459 12.8858 17.6562 13.4274 17.6875 13.9687C17.7323 13.9347 17.7636 13.893 17.7812 13.8437C18.7718 12.4533 20.1259 11.8804 21.8438 12.1249C23.5062 12.3914 24.6208 13.3185 25.1875 14.9062C25.3236 15.3784 25.4277 15.8576 25.5 16.3437C25.5312 18.8436 25.5417 21.3436 25.5312 23.8437C24.2604 23.8437 22.9896 23.8437 21.7188 23.8437C21.7477 21.4665 21.7164 19.0915 21.625 16.7187C21.2861 15.3806 20.4423 14.8701 19.0938 15.1874C18.3271 15.5166 17.8583 16.0896 17.6875 16.9062C17.6562 19.2186 17.6458 21.5311 17.6562 23.8437C16.3854 23.8437 15.1146 23.8437 13.8438 23.8437C13.8438 20.0104 13.8438 16.177 13.8438 12.3437C15.1146 12.3437 16.3854 12.3437 17.6562 12.3437Z" fill="#F0F1F1"/>
<path fill-rule="evenodd" clip-rule="evenodd" d="M11.7187 12.4061C10.4687 12.4061 9.21871 12.4061 7.96871 12.4061C7.96871 16.2186 7.96871 20.0311 7.96871 23.8436C7.90627 20.0209 7.88546 16.1875 7.90621 12.3436C9.18789 12.323 10.4587 12.3438 11.7187 12.4061Z" fill="#CEE1E9"/>
<path fill-rule="evenodd" clip-rule="evenodd" d="M11.7188 12.4062C11.7188 16.2188 11.7188 20.0312 11.7188 23.8438C10.4688 23.8438 9.21875 23.8438 7.96875 23.8438C7.96875 20.0312 7.96875 16.2188 7.96875 12.4062C9.21875 12.4062 10.4688 12.4062 11.7188 12.4062Z" fill="#F0F2F1"/>
<path fill-rule="evenodd" clip-rule="evenodd" d="M17.6562 12.3438C17.6979 12.8438 17.7395 13.3438 17.7812 13.8438C17.7635 13.8931 17.7323 13.9347 17.6875 13.9688C17.6562 13.4275 17.6459 12.8858 17.6562 12.3438Z" fill="#5DA7CE"/>
</g>
<defs>
<clipPath id="clip0_253_60">
<rect width="32" height="32" fill="white"/>
</clipPath>
</defs>
</svg>
