<svg width="25" height="25" viewBox="0 0 25 25" fill="none" xmlns="http://www.w3.org/2000/svg">
<path opacity="0.988" fill-rule="evenodd" clip-rule="evenodd" d="M12.0365 1.24525C15.1833 1.22953 17.47 2.61299 18.8969 5.39564C19.6726 7.25331 19.7051 9.12503 18.9945 11.0109C18.1787 13.034 17.1371 14.922 15.8695 16.6749C14.9497 17.985 13.965 19.2464 12.9154 20.4591C12.6225 20.6219 12.3295 20.6219 12.0365 20.4591C9.79985 17.9164 7.91997 15.1251 6.39688 12.0851C5.99644 11.2256 5.70347 10.3304 5.51797 9.39955C5.19458 6.52626 6.1793 4.2232 8.47207 2.49037C9.55996 1.77785 10.7481 1.36281 12.0365 1.24525ZM12.4271 5.44447C14.1758 5.60628 15.1361 6.55843 15.308 8.30091C15.2462 9.53172 14.6603 10.4106 13.5502 10.9376C11.8436 11.4392 10.5985 10.8939 9.81484 9.30189C9.42085 7.97767 9.75449 6.87904 10.8158 6.00599C11.3095 5.67606 11.8466 5.48885 12.4271 5.44447Z" fill="#999999"/>
<path opacity="0.963" fill-rule="evenodd" clip-rule="evenodd" d="M7.05593 16.5282C7.65667 16.4702 7.99846 16.7388 8.08132 17.3339C8.06384 17.6789 7.90105 17.9231 7.59304 18.0663C6.64382 18.317 5.80559 18.7646 5.07839 19.4091C5.00984 19.5135 4.96917 19.6275 4.95632 19.7509C4.99382 19.9561 5.08337 20.1352 5.22488 20.288C6.00545 20.8798 6.87625 21.2948 7.83718 21.5331C10.723 22.2212 13.6201 22.27 16.5286 21.6796C17.3606 21.4999 18.1581 21.2233 18.9212 20.8495C19.3663 20.632 19.7162 20.3146 19.971 19.8974C20.0016 19.5761 19.8796 19.3238 19.6048 19.1405C18.923 18.6532 18.1743 18.2952 17.3587 18.0663C16.9335 17.8327 16.7951 17.4828 16.9436 17.0165C17.0898 16.7074 17.3339 16.5446 17.6761 16.5282C18.9784 16.7806 20.1015 17.3665 21.0452 18.286C21.8203 19.3377 21.7878 20.3631 20.9475 21.3622C20.2971 21.9522 19.5566 22.3998 18.7259 22.705C16.7005 23.3925 14.6172 23.7261 12.4759 23.706C10.8428 23.7026 9.23152 23.5155 7.64187 23.1444C6.49402 22.887 5.43606 22.4313 4.46804 21.7773C3.91304 21.359 3.54683 20.8138 3.36941 20.1415C3.27612 19.2131 3.5935 18.4563 4.32156 17.871C5.15408 17.26 6.06555 16.8124 7.05593 16.5282Z" fill="#999999"/>
</svg>
