<svg width="19" height="19" viewBox="0 0 19 19" fill="none" xmlns="http://www.w3.org/2000/svg">
<path opacity="0.975" fill-rule="evenodd" clip-rule="evenodd" d="M3.91504 2.02234C8.1084 2.01615 12.3018 2.02234 16.4951 2.04089C17.5156 2.26974 18.1403 2.89441 18.3691 3.91492C18.3939 6.12912 18.3939 8.34329 18.3691 10.5575C18.1416 10.9494 17.8261 11.0421 17.4229 10.8358C17.3261 10.7639 17.2581 10.6711 17.2188 10.5575C17.2064 8.47937 17.194 6.40125 17.1816 4.32312C17.1379 3.78348 16.8595 3.43094 16.3467 3.2655C12.2647 3.25314 8.18262 3.24076 4.10059 3.22839C3.63773 3.1384 3.45837 2.86008 3.5625 2.39343C3.63755 2.2257 3.75506 2.102 3.91504 2.02234Z" fill="#676767"/>
<path opacity="0.977" fill-rule="evenodd" clip-rule="evenodd" d="M2.46777 4.39734C6.3519 4.39115 10.236 4.39734 14.1201 4.4159C15.1406 4.64475 15.7653 5.26941 15.9941 6.28992C16.0189 8.5907 16.0189 10.8915 15.9941 13.1923C15.7127 14.3766 14.9644 15.0137 13.749 15.1034C10.6689 15.1158 7.58887 15.1282 4.50879 15.1405C3.81607 15.66 3.12338 16.1796 2.43067 16.6991C1.93588 17.0207 1.44108 17.0207 0.94629 16.6991C0.77709 16.5403 0.659579 16.3485 0.593751 16.1239C0.56901 12.8459 0.56901 9.56791 0.593751 6.28992C0.829303 5.2689 1.45398 4.63804 2.46777 4.39734ZM2.61621 5.62195C6.40141 5.61576 10.1866 5.62195 13.9717 5.64051C14.4845 5.80594 14.7629 6.15848 14.8066 6.69813C14.8314 8.72678 14.8314 10.7554 14.8066 12.7841C14.7435 13.4286 14.391 13.7935 13.749 13.8788C10.6071 13.8911 7.46518 13.9035 4.32324 13.9159C4.08233 13.9745 3.85967 14.0735 3.65528 14.2128C3.0306 14.689 2.40592 15.1653 1.78125 15.6415C1.75651 12.6604 1.75651 9.67923 1.78125 6.69813C1.82877 6.15677 2.10709 5.79804 2.61621 5.62195Z" fill="#676767"/>
<path opacity="0.933" fill-rule="evenodd" clip-rule="evenodd" d="M5.8076 9.18457C6.42443 9.2019 6.65329 9.51117 6.49413 10.1123C6.22163 10.4424 5.9062 10.4919 5.54784 10.2607C5.27119 9.96869 5.25879 9.66562 5.51073 9.35156C5.60717 9.28495 5.70615 9.22929 5.8076 9.18457Z" fill="#676767"/>
<path opacity="0.933" fill-rule="evenodd" clip-rule="evenodd" d="M8.1826 9.18457C8.79943 9.2019 9.02829 9.51117 8.86913 10.1123C8.59663 10.4424 8.2812 10.4919 7.92284 10.2607C7.64619 9.96869 7.63379 9.66562 7.88573 9.35156C7.98217 9.28495 8.08115 9.22929 8.1826 9.18457Z" fill="#676767"/>
<path opacity="0.936" fill-rule="evenodd" clip-rule="evenodd" d="M10.4834 9.18473C10.9287 9.15931 11.1884 9.36341 11.2627 9.79703C11.1429 10.3394 10.8213 10.5126 10.2979 10.3166C10.0361 10.0903 9.96807 9.81195 10.0938 9.4816C10.1988 9.34508 10.3287 9.24611 10.4834 9.18473Z" fill="#676767"/>
</svg>
