<svg width="26" height="26" viewBox="0 0 26 26" fill="none" xmlns="http://www.w3.org/2000/svg">
<path d="M14.0833 3.31516V1.0835H11.9167V3.31516C9.7198 3.56055 7.67167 4.54567 6.10859 6.10875C4.54551 7.67183 3.56039 9.71996 3.315 11.9168H1.08334V14.0835H3.315C3.56039 16.2804 4.54551 18.3285 6.10859 19.8916C7.67167 21.4547 9.7198 22.4398 11.9167 22.6852V24.9168H14.0833V22.6852C16.2802 22.4398 18.3283 21.4547 19.8914 19.8916C21.4545 18.3285 22.4396 16.2804 22.685 14.0835H24.9167V11.9168H22.685C22.4396 9.71996 21.4545 7.67183 19.8914 6.10875C18.3283 4.54567 16.2802 3.56055 14.0833 3.31516ZM13 20.5835C8.8075 20.5835 5.41667 17.1927 5.41667 13.0002C5.41667 8.80766 8.8075 5.41683 13 5.41683C17.1925 5.41683 20.5833 8.80766 20.5833 13.0002C20.5833 17.1927 17.1925 20.5835 13 20.5835Z" fill="#5F60B9"/>
<path opacity="0.3" d="M13 15.1668C13.5746 15.1668 14.1257 14.9386 14.5321 14.5322C14.9384 14.1259 15.1667 13.5748 15.1667 13.0002C15.1667 12.4255 14.9384 11.8744 14.5321 11.4681C14.1257 11.0618 13.5746 10.8335 13 10.8335C12.4254 10.8335 11.8743 11.0618 11.4679 11.4681C11.0616 11.8744 10.8333 12.4255 10.8333 13.0002C10.8333 13.5748 11.0616 14.1259 11.4679 14.5322C11.8743 14.9386 12.4254 15.1668 13 15.1668Z" fill="#5F60B9"/>
<path d="M13 8.66699C10.6058 8.66699 8.66667 10.6062 8.66667 13.0003C8.66667 15.3945 10.6058 17.3337 13 17.3337C15.3942 17.3337 17.3333 15.3945 17.3333 13.0003C17.3333 10.6062 15.3942 8.66699 13 8.66699ZM13 15.167C11.8083 15.167 10.8333 14.192 10.8333 13.0003C10.8333 11.8087 11.8083 10.8337 13 10.8337C14.1917 10.8337 15.1667 11.8087 15.1667 13.0003C15.1667 14.192 14.1917 15.167 13 15.167Z" fill="#5F60B9"/>
</svg>
