<svg width="28" height="28" viewBox="0 0 28 28" fill="none" xmlns="http://www.w3.org/2000/svg">
<path d="M10.9375 25.9381C10.9375 27.0771 11.8608 28 12.9994 28H13.1371C14.2757 28 15.199 27.0771 15.199 25.9381V18.5127H10.9375V25.9381Z" fill="black"/>
<path d="M24.1054 3.60451L24.1038 3.60019H23.3821V2.38328C23.3813 1.06684 22.3152 0.000820313 20.9988 0H4.68223C3.36585 0.000820313 2.29977 1.06684 2.29901 2.38328V6.66706C2.29977 7.9835 3.36585 9.04952 4.68223 9.05029H20.9988C22.3152 9.04952 23.3813 7.9835 23.382 6.66706V5.32957H23.7642C23.9517 5.32957 24.1038 5.4816 24.1038 5.66918V6.09613V8.61662C24.1038 9.08496 23.8183 9.50759 23.3828 9.6827L23.3582 9.69243L13.9964 14.1922L13.9976 14.1942C12.985 14.6243 12.3228 15.6155 12.3228 16.7194V17.5807H13.92V16.7194C13.92 16.2499 14.205 15.828 14.6406 15.6529L14.6655 15.6428L24.0265 11.1434L24.0254 11.1414C25.0388 10.7114 25.7009 9.72016 25.7009 8.61667V5.27264C25.7006 4.1668 25.1551 3.60527 24.1054 3.60451ZM21.7849 6.66701C21.7845 6.88614 21.6984 7.07798 21.5544 7.22263C21.4098 7.36646 21.2183 7.4527 20.9988 7.45309H4.68223C4.46272 7.4527 4.2712 7.36652 4.12655 7.22263C3.98273 7.07798 3.89654 6.88609 3.8961 6.66701V2.38328C3.89654 2.16377 3.98267 1.9723 4.12655 1.82722C4.2712 1.68372 4.46266 1.59753 4.68223 1.59715H20.9988C21.2183 1.59759 21.4098 1.68372 21.5544 1.82722C21.6984 1.97225 21.7845 2.16377 21.7849 2.38328V6.66701Z" fill="black"/>
</svg>
