<svg width="11" height="11" viewBox="0 0 11 11" fill="none" xmlns="http://www.w3.org/2000/svg">
<g clip-path="url(#clip0_6_84271)">
<path d="M1.06145 1.70782C1.0849 1.70764 1.0849 1.70764 1.10883 1.70744C1.16125 1.70713 1.21365 1.70743 1.26607 1.70772C1.30402 1.70763 1.34196 1.70749 1.37991 1.70732C1.48422 1.70696 1.58851 1.70714 1.69281 1.7074C1.80529 1.7076 1.91777 1.7073 2.03024 1.70706C2.25059 1.70668 2.47094 1.70676 2.69129 1.70701C2.87034 1.7072 3.04939 1.70723 3.22845 1.70714C3.25391 1.70712 3.27938 1.70711 3.30562 1.7071C3.35735 1.70707 3.40908 1.70704 3.46081 1.70701C3.94609 1.70677 4.43137 1.70705 4.91666 1.70751C5.33322 1.7079 5.74979 1.70783 6.16635 1.70743C6.64988 1.70697 7.1334 1.70679 7.61693 1.70706C7.66847 1.70708 7.72001 1.70711 7.77155 1.70714C7.80959 1.70716 7.80959 1.70716 7.8484 1.70718C8.02728 1.70725 8.20616 1.70713 8.38503 1.70692C8.60297 1.70668 8.8209 1.70675 9.03884 1.70721C9.15007 1.70743 9.2613 1.70752 9.37253 1.70724C9.47431 1.70698 9.57608 1.70712 9.67786 1.70758C9.71472 1.70767 9.75159 1.70763 9.78846 1.70742C9.8385 1.70716 9.88851 1.70742 9.93855 1.70782C9.96636 1.70784 9.99418 1.70785 10.0228 1.70787C10.1354 1.72407 10.2007 1.77732 10.2776 1.85829C10.3291 1.96925 10.3287 2.07099 10.3125 2.19129C10.263 2.29797 10.1999 2.35008 10.0977 2.40614C10.0336 2.41726 9.97131 2.4162 9.90648 2.41453C9.88854 2.41441 9.8706 2.41429 9.85212 2.41416C9.7952 2.41368 9.73831 2.4126 9.6814 2.41151C9.64265 2.41108 9.60391 2.41069 9.56516 2.41033C9.47051 2.40939 9.37589 2.40791 9.28125 2.40614C9.28128 2.4214 9.28132 2.43666 9.28135 2.45238C9.28327 3.35731 9.28475 4.26224 9.28564 5.16718C9.28575 5.2759 9.28586 5.38462 9.28597 5.49334C9.28599 5.51498 9.28602 5.53662 9.28604 5.55892C9.28641 5.90912 9.28709 6.25931 9.28788 6.6095C9.28868 6.96898 9.28916 7.32846 9.28934 7.68794C9.28945 7.90965 9.28983 8.13137 9.29052 8.35308C9.29098 8.50524 9.29112 8.6574 9.291 8.80955C9.29095 8.89727 9.29103 8.98497 9.29149 9.07268C9.29191 9.15315 9.29193 9.23361 9.29164 9.31408C9.29159 9.35664 9.29195 9.39919 9.29234 9.44174C9.29012 9.77742 9.1762 10.0711 8.9469 10.3178C8.69453 10.5559 8.39981 10.6666 8.05436 10.6645C8.03155 10.6646 8.00873 10.6647 7.98523 10.6648C7.90942 10.6651 7.83361 10.665 7.7578 10.6648C7.70319 10.6649 7.64857 10.6651 7.59396 10.6653C7.46139 10.6656 7.32882 10.6657 7.19625 10.6655C7.08842 10.6655 6.98058 10.6655 6.87275 10.6656C6.85736 10.6656 6.84197 10.6656 6.82611 10.6656C6.79484 10.6657 6.76357 10.6657 6.73229 10.6657C6.4395 10.666 6.14671 10.6659 5.85392 10.6657C5.58654 10.6655 5.31917 10.6657 5.0518 10.6663C4.7767 10.6668 4.5016 10.667 4.2265 10.6668C4.07228 10.6668 3.91805 10.6668 3.76383 10.6672C3.61877 10.6675 3.47371 10.6674 3.32865 10.667C3.27555 10.667 3.22246 10.667 3.16936 10.6672C2.73823 10.6689 2.38808 10.6295 2.05713 10.3218C1.79595 10.045 1.70845 9.73872 1.711 9.36375C1.71097 9.3336 1.71091 9.30344 1.71083 9.27328C1.71069 9.19102 1.71094 9.10876 1.71127 9.0265C1.71155 8.93756 1.71145 8.84863 1.7114 8.75969C1.71137 8.6058 1.71157 8.45192 1.71194 8.29803C1.71246 8.07554 1.71263 7.85304 1.71271 7.63055C1.71285 7.26953 1.71328 6.90851 1.71389 6.54749C1.71448 6.19689 1.71494 5.84629 1.71521 5.4957C1.71523 5.47407 1.71524 5.45244 1.71526 5.43016C1.71534 5.32165 1.71543 5.21314 1.71551 5.10463C1.71617 4.20513 1.71731 3.30563 1.71875 2.40614C1.69469 2.40659 1.67064 2.40704 1.64585 2.4075C1.55625 2.40906 1.46664 2.41005 1.37702 2.41086C1.33831 2.41129 1.29959 2.41187 1.26087 2.41262C1.20509 2.41367 1.14932 2.41415 1.09352 2.41453C1.06773 2.4152 1.06773 2.4152 1.04142 2.41587C0.927284 2.41592 0.86444 2.39504 0.773438 2.3202C0.695485 2.23814 0.68084 2.17233 0.676758 2.06239C0.68084 1.95245 0.695485 1.88663 0.773438 1.80457C0.87207 1.72654 0.936329 1.70789 1.06145 1.70782ZM2.40625 2.40614C2.405 3.64955 2.405 3.64955 2.40415 4.89295C2.40407 5.0606 2.40398 5.22826 2.40389 5.39591C2.40388 5.41692 2.40387 5.43793 2.40386 5.45958C2.40367 5.79871 2.40333 6.13784 2.40293 6.47697C2.40253 6.82507 2.40229 7.17316 2.40221 7.52125C2.40215 7.73601 2.40196 7.95076 2.40161 8.16552C2.40139 8.31283 2.40132 8.46013 2.40137 8.60744C2.4014 8.6924 2.40136 8.77736 2.40113 8.86233C2.40092 8.9402 2.40091 9.01808 2.40106 9.09596C2.40108 9.13728 2.4009 9.1786 2.4007 9.21992C2.40153 9.51779 2.40153 9.51779 2.53516 9.77528C2.71378 9.95221 2.88832 9.97192 3.13183 9.97151C3.15286 9.97156 3.17389 9.97161 3.19555 9.97166C3.26596 9.97179 3.33636 9.97178 3.40677 9.97176C3.45727 9.97182 3.50778 9.9719 3.55828 9.97198C3.69545 9.97217 3.83261 9.97222 3.96977 9.97223C4.06986 9.97225 4.16995 9.97231 4.27003 9.97238C4.53924 9.97256 4.80846 9.97264 5.07767 9.97262C5.10059 9.97262 5.10059 9.97262 5.12397 9.97262C5.13926 9.97262 5.15456 9.97262 5.17032 9.97262C5.41817 9.97261 5.66602 9.97281 5.91387 9.97312C6.16857 9.97342 6.42327 9.97357 6.67797 9.97355C6.82088 9.97355 6.96379 9.97361 7.1067 9.97384C7.24113 9.97405 7.37555 9.97405 7.50998 9.97389C7.55927 9.97387 7.60856 9.97392 7.65784 9.97405C7.72523 9.97421 7.7926 9.97411 7.85999 9.97395C7.8794 9.97406 7.89881 9.97417 7.91881 9.97428C8.11687 9.97321 8.29008 9.95083 8.43539 9.80448C8.61103 9.6098 8.59692 9.39678 8.59633 9.14673C8.59634 9.11762 8.59636 9.08852 8.59639 9.05941C8.59644 8.97965 8.59635 8.89989 8.59624 8.82013C8.59615 8.73403 8.59618 8.64793 8.5962 8.56183C8.59621 8.41274 8.59614 8.26365 8.59602 8.11455C8.59585 7.89899 8.59579 7.68343 8.59576 7.46786C8.59572 7.11811 8.59557 6.76836 8.59537 6.41861C8.59517 6.07889 8.59502 5.73917 8.59493 5.39945C8.59492 5.37829 8.59492 5.35713 8.59491 5.33533C8.59487 5.16985 8.59483 5.00437 8.59478 4.83889C8.59458 4.02797 8.59415 3.21706 8.59375 2.40614C6.55188 2.40614 4.51 2.40614 2.40625 2.40614Z" fill="#37723B"/>
<path d="M6.76768 3.78132C6.8737 3.83055 6.92566 3.89506 6.98253 3.99617C7.01165 4.07894 7.00713 4.16451 7.00703 4.25115C7.00709 4.26829 7.00716 4.28544 7.00722 4.30311C7.00741 4.36064 7.00744 4.41816 7.00747 4.47569C7.00757 4.51691 7.00768 4.55813 7.0078 4.59935C7.00808 4.71139 7.00822 4.82343 7.00831 4.93547C7.00838 5.00548 7.00846 5.07548 7.00856 5.14549C7.00885 5.36454 7.00906 5.5836 7.00915 5.80266C7.00924 6.05548 7.00962 6.30831 7.01024 6.56113C7.01071 6.75658 7.01092 6.95203 7.01095 7.14749C7.01097 7.26421 7.0111 7.38093 7.01148 7.49765C7.01184 7.60748 7.01188 7.7173 7.0117 7.82713C7.01168 7.86738 7.01177 7.90763 7.01199 7.94789C7.01226 8.00296 7.01213 8.05802 7.01191 8.11309C7.01208 8.12891 7.01225 8.14474 7.01243 8.16104C7.0113 8.28118 6.9928 8.40741 6.90837 8.49862C6.79519 8.59481 6.71894 8.60134 6.57399 8.59978C6.48753 8.59175 6.4437 8.56748 6.38097 8.50789C6.29841 8.406 6.28264 8.32556 6.28412 8.19796C6.28398 8.18004 6.28385 8.16212 6.28371 8.14367C6.28337 8.08379 6.28364 8.02394 6.28391 7.96406C6.28379 7.92107 6.28364 7.87808 6.28345 7.83509C6.28306 7.71844 6.28321 7.60179 6.28348 7.48514C6.2837 7.36305 6.2835 7.24096 6.28337 7.11887C6.28321 6.91385 6.28342 6.70882 6.28382 6.5038C6.28429 6.26677 6.28414 6.02975 6.28367 5.79272C6.28328 5.58921 6.28322 5.38569 6.28345 5.18218C6.28358 5.06063 6.2836 4.93908 6.28332 4.81754C6.28307 4.70326 6.28324 4.589 6.28374 4.47473C6.28385 4.43279 6.28382 4.39086 6.28363 4.34892C6.28339 4.29167 6.28369 4.23444 6.28412 4.17719C6.28392 4.1606 6.28373 4.14401 6.28353 4.12692C6.28515 4.01565 6.31128 3.95326 6.38097 3.86726C6.49422 3.75967 6.61962 3.76139 6.76768 3.78132Z" fill="#37723B"/>
<path d="M4.49035 3.78122C4.59712 3.83079 4.64859 3.89409 4.7052 3.99606C4.71333 4.05919 4.71684 4.11412 4.71611 4.17708C4.71624 4.195 4.71638 4.21292 4.71652 4.23138C4.71686 4.29125 4.71659 4.35111 4.71632 4.41098C4.71643 4.45397 4.71659 4.49696 4.71677 4.53995C4.71717 4.6566 4.71701 4.77325 4.71674 4.8899C4.71652 5.01199 4.71673 5.13408 4.71686 5.25617C4.71702 5.4612 4.71681 5.66622 4.7164 5.87124C4.71593 6.10827 4.71608 6.34529 4.71656 6.58232C4.71695 6.78584 4.717 6.98935 4.71678 7.19287C4.71664 7.31441 4.71663 7.43596 4.71691 7.55751C4.71716 7.67178 4.71699 7.78604 4.71649 7.90031C4.71638 7.94225 4.71641 7.98419 4.7166 8.02612C4.71683 8.08337 4.71654 8.1406 4.71611 8.19785C4.7163 8.21444 4.71649 8.23103 4.71669 8.24812C4.71508 8.3594 4.68895 8.42178 4.61926 8.50778C4.5372 8.58573 4.47139 8.60038 4.36145 8.60446C4.25151 8.60038 4.18569 8.58573 4.10363 8.50778C4.00376 8.37822 3.99301 8.2836 3.9932 8.1239C3.99313 8.10675 3.99307 8.0896 3.993 8.07193C3.99282 8.01441 3.99278 7.95688 3.99275 7.89936C3.99265 7.85814 3.99254 7.81692 3.99243 7.7757C3.99215 7.66366 3.99201 7.55161 3.99191 7.43957C3.99185 7.36957 3.99176 7.29956 3.99166 7.22955C3.99137 7.0105 3.99116 6.79144 3.99108 6.57239C3.99098 6.31956 3.99061 6.06674 3.98998 5.81391C3.98952 5.61846 3.9893 5.42301 3.98927 5.22756C3.98925 5.11083 3.98913 4.99411 3.98874 4.87739C3.98839 4.76757 3.98834 4.65774 3.98853 4.54792C3.98855 4.50766 3.98845 4.46741 3.98824 4.42715C3.98797 4.37208 3.98809 4.31703 3.98832 4.26195C3.98814 4.24613 3.98797 4.2303 3.98779 4.214C3.98893 4.09386 4.00743 3.96764 4.09186 3.87642C4.21953 3.76791 4.32713 3.76605 4.49035 3.78122Z" fill="#37723B"/>
<path d="M4.28479 0.332571C4.31423 0.332455 4.34368 0.332302 4.37312 0.332115C4.45284 0.331724 4.53256 0.331875 4.61228 0.332148C4.69584 0.332366 4.77939 0.332163 4.86294 0.332028C5.00323 0.331872 5.14352 0.332078 5.28381 0.332487C5.44586 0.332955 5.6079 0.332804 5.76995 0.33233C5.90924 0.33194 6.04853 0.331886 6.18782 0.33211C6.27094 0.332244 6.35406 0.332263 6.43718 0.331978C6.51534 0.331729 6.59349 0.331903 6.67165 0.332399C6.71391 0.332566 6.75616 0.332312 6.79842 0.332044C7.02914 0.334254 7.02914 0.334254 7.13281 0.429629C7.21077 0.511684 7.22541 0.577501 7.22949 0.687441C7.22541 0.797381 7.21077 0.863198 7.13281 0.945254C7.00921 1.05896 6.87643 1.04333 6.71521 1.04231C6.68577 1.04243 6.65632 1.04258 6.62688 1.04277C6.54716 1.04316 6.46744 1.04301 6.38772 1.04273C6.30416 1.04252 6.22061 1.04272 6.13706 1.04285C5.99677 1.04301 5.85648 1.0428 5.71619 1.04239C5.55414 1.04193 5.3921 1.04208 5.23005 1.04255C5.09076 1.04294 4.95147 1.043 4.81218 1.04277C4.72906 1.04264 4.64594 1.04262 4.56282 1.0429C4.48466 1.04315 4.40651 1.04298 4.32835 1.04248C4.28609 1.04232 4.24384 1.04257 4.20158 1.04284C3.97086 1.04063 3.97086 1.04063 3.86719 0.945254C3.78923 0.863198 3.77459 0.797381 3.77051 0.687441C3.77459 0.577501 3.78923 0.511684 3.86719 0.429629C3.99079 0.315919 4.12357 0.33155 4.28479 0.332571Z" fill="#37723B"/>
</g>
<defs>
<clipPath id="clip0_6_84271">
<rect width="11" height="11" fill="white"/>
</clipPath>
</defs>
</svg>
