<svg width="22" height="22" viewBox="0 0 22 22" fill="none" xmlns="http://www.w3.org/2000/svg">
<g clip-path="url(#clip0_6_75897)">
<path d="M20.6809 18.7356L15.884 13.9387C17.0872 12.2477 17.6111 10.1663 17.3519 8.10722C17.0927 6.0481 16.0692 4.16154 14.4844 2.82152C12.8997 1.4815 10.8692 0.78584 8.79566 0.87245C6.72209 0.95906 4.75676 1.82161 3.28924 3.28913C1.82173 4.75664 0.959178 6.72198 0.872568 8.79554C0.785958 10.8691 1.48161 12.8995 2.82164 14.4843C4.16166 16.0691 6.04822 17.0925 8.10734 17.3518C10.1665 17.611 12.2478 17.0871 13.9388 15.8839L18.7357 20.6808C18.9937 20.9387 19.3435 21.0837 19.7083 21.0837C20.0731 21.0837 20.423 20.9387 20.6809 20.6808C20.9389 20.4229 21.0838 20.073 21.0838 19.7082C21.0838 19.3434 20.9389 18.9936 20.6809 18.7356ZM2.75 9.16655C2.75 7.89745 3.12633 6.65685 3.8314 5.60164C4.53647 4.54642 5.53862 3.72398 6.71111 3.23832C7.88361 2.75266 9.17378 2.62559 10.4185 2.87318C11.6632 3.12076 12.8065 3.73189 13.7039 4.62928C14.6013 5.52667 15.2125 6.67001 15.46 7.91472C15.7076 9.15943 15.5806 10.4496 15.0949 11.6221C14.6092 12.7946 13.7868 13.7967 12.7316 14.5018C11.6764 15.2069 10.4358 15.5832 9.16667 15.5832C7.46546 15.5813 5.83448 14.9046 4.63154 13.7017C3.4286 12.4987 2.75194 10.8678 2.75 9.16655Z" fill="#8E9298"/>
</g>
<defs>
<clipPath id="clip0_6_75897">
<rect width="22" height="22" fill="white"/>
</clipPath>
</defs>
</svg>
