<svg width="28" height="28" viewBox="0 0 28 28" fill="none" xmlns="http://www.w3.org/2000/svg">
<circle cx="14" cy="14" r="14" fill="white"/>
<g clip-path="url(#clip0_6_80277)">
<path opacity="0.967" fill-rule="evenodd" clip-rule="evenodd" d="M12.1895 5.68555C12.3407 5.66081 12.4638 5.70768 12.5586 5.82617C12.5703 6.51758 12.582 7.20899 12.5938 7.90039C12.752 8.01172 12.9102 8.12305 13.0684 8.23438C13.1152 8.25782 13.1621 8.25782 13.209 8.23438C13.3672 8.12305 13.5254 8.01172 13.6836 7.90039C13.6953 7.20899 13.707 6.51758 13.7188 5.82617C13.8825 5.65745 14.0641 5.63987 14.2637 5.77344C15.523 6.5273 15.939 7.61129 15.5117 9.02539C15.4414 9.16602 15.3711 9.30664 15.3008 9.44727C15.0781 9.71681 14.8555 9.98632 14.6328 10.2559C14.5599 10.5557 14.5305 10.8604 14.5449 11.1699C15.0841 11.1758 15.6232 11.1699 16.1621 11.1523C16.2441 11.0703 16.3262 10.9883 16.4082 10.9063C16.209 10.8945 16.0098 10.8828 15.8105 10.8711C15.7461 10.8535 15.7051 10.8125 15.6875 10.748C15.6641 10.2793 15.6641 9.81054 15.6875 9.3418C15.7051 9.27736 15.7461 9.23633 15.8105 9.21875C16.0098 9.20705 16.209 9.1953 16.4082 9.1836C16.2852 9.06055 16.1621 8.9375 16.0391 8.81446C15.9675 8.67967 15.9792 8.55075 16.0742 8.42774C16.3636 8.11477 16.6742 7.82766 17.0059 7.56641C17.0645 7.54297 17.123 7.54297 17.1816 7.56641C17.3387 7.68823 17.4851 7.82299 17.6211 7.97071C17.6328 7.77149 17.6445 7.57227 17.6563 7.37305C17.6738 7.3086 17.7149 7.26758 17.7793 7.25C18.248 7.22656 18.7168 7.22656 19.1856 7.25C19.25 7.26758 19.291 7.3086 19.3086 7.37305C19.3203 7.57227 19.332 7.77149 19.3438 7.97071C19.4668 7.84766 19.5898 7.72461 19.7129 7.60157C19.8477 7.52993 19.9766 7.54166 20.0996 7.63672C20.4126 7.92614 20.6997 8.23669 20.9609 8.56836C20.9858 8.65523 20.9741 8.73729 20.9258 8.81446C20.8027 8.9375 20.6797 9.06055 20.5566 9.1836C20.7559 9.1953 20.9551 9.20705 21.1543 9.21875C21.2187 9.23633 21.2598 9.27736 21.2773 9.3418C21.3008 9.81054 21.3008 10.2793 21.2773 10.748C21.2598 10.8125 21.2187 10.8535 21.1543 10.8711C20.9551 10.8828 20.7559 10.8945 20.5566 10.9063C20.6387 10.9883 20.7207 11.0703 20.8027 11.1523C20.9572 11.1529 21.1037 11.1822 21.2422 11.2402C21.6289 12.0137 22.0156 12.7871 22.4023 13.5605C22.4258 13.6543 22.4258 13.748 22.4023 13.8418C22.3848 13.9062 22.3437 13.9473 22.2793 13.9648C21.9514 13.9824 21.6232 13.9883 21.2949 13.9824C21.2949 15.002 21.2949 16.0215 21.2949 17.041C22.0535 17.163 22.3993 17.6084 22.332 18.377C22.2355 18.7901 21.9952 19.0889 21.6113 19.2734C19.987 20.2086 18.3581 21.1344 16.7246 22.0508C16.6309 22.0742 16.5371 22.0976 16.4434 22.1211C14.791 22.1445 13.1387 22.1445 11.4863 22.1211C11.1862 22.059 10.905 21.9477 10.6426 21.7871C10.6135 21.95 10.5959 22.114 10.5898 22.2793C10.5723 22.3437 10.5312 22.3848 10.4668 22.4023C9.62305 22.4258 8.7793 22.4258 7.93555 22.4023C7.8711 22.3848 7.83008 22.3437 7.8125 22.2793C7.79497 22.1392 7.78911 21.9985 7.79492 21.8574C7.06513 21.8742 6.33857 21.8566 5.61524 21.8047C5.59324 21.7783 5.57566 21.749 5.5625 21.7168C5.55664 21.0137 5.55078 20.3105 5.54492 19.6074C5.53944 18.8778 5.55702 18.1513 5.59766 17.4277C5.62404 17.4057 5.65334 17.3882 5.68555 17.375C6.38858 17.3574 7.0917 17.3516 7.79492 17.3574C7.78911 17.2163 7.79497 17.0757 7.8125 16.9355C7.83008 16.8711 7.8711 16.8301 7.93555 16.8125C8.7793 16.7891 9.62305 16.7891 10.4668 16.8125C10.5312 16.8301 10.5723 16.8711 10.5898 16.9355C10.6074 17.1344 10.6133 17.3337 10.6074 17.5332C10.7932 17.4999 10.9748 17.4531 11.1523 17.3926C11.1699 16.2559 11.1758 15.1192 11.1699 13.9824C10.8416 13.9883 10.5135 13.9824 10.1855 13.9648C10.1211 13.9473 10.0801 13.9062 10.0625 13.8418C10.0391 13.748 10.0391 13.6543 10.0625 13.5605C10.4492 12.7871 10.8359 12.0137 11.2227 11.2402C11.249 11.2182 11.2783 11.2007 11.3105 11.1875C11.4507 11.17 11.5913 11.1641 11.7324 11.1699C11.7468 10.8604 11.7175 10.5557 11.6445 10.2559C11.4219 9.98632 11.1992 9.71681 10.9766 9.44727C10.4638 8.53862 10.4638 7.62455 10.9766 6.70508C11.2812 6.24193 11.6855 5.90209 12.1895 5.68555ZM11.9785 6.49414C12.0077 7.06232 12.0253 7.63654 12.0313 8.2168C12.3323 8.47036 12.6546 8.69886 12.998 8.90235C13.1198 8.93107 13.237 8.91933 13.3496 8.86719C13.6367 8.67383 13.9238 8.48047 14.2109 8.28711C14.2569 7.69266 14.2803 7.095 14.2813 6.49414C15.1004 7.19279 15.2878 8.03654 14.8438 9.02539C14.6723 9.30253 14.4614 9.54862 14.2109 9.76367C14.1523 9.88085 14.0938 9.99806 14.0352 10.1152C13.9861 10.4645 13.9685 10.816 13.9824 11.1699C13.7949 11.1699 13.6074 11.1699 13.4199 11.1699C13.4258 10.8416 13.4199 10.5135 13.4023 10.1855C13.3486 10.0795 13.2607 10.0327 13.1387 10.0449C13.0166 10.0327 12.9288 10.0795 12.875 10.1855C12.8574 10.5135 12.8516 10.8416 12.8574 11.1699C12.6699 11.1699 12.4824 11.1699 12.2949 11.1699C12.4505 10.4429 12.2454 9.8452 11.6797 9.37696C11.2113 8.80349 11.0823 8.15894 11.293 7.44336C11.4351 7.06152 11.6636 6.74512 11.9785 6.49414ZM18.2012 7.79492C18.3887 7.79492 18.5762 7.79492 18.7637 7.79492C18.7578 8.06471 18.7637 8.33424 18.7813 8.60352C18.9293 8.76253 19.111 8.82697 19.3262 8.79688C19.5184 8.63983 19.7001 8.46992 19.8711 8.28711C19.9941 8.41016 20.1172 8.53321 20.2402 8.65625C20.0574 8.82729 19.8875 9.00894 19.7305 9.20117C19.7004 9.41637 19.7648 9.59802 19.9238 9.7461C20.1931 9.76367 20.4626 9.76951 20.7324 9.76367C20.7324 9.95116 20.7324 10.1387 20.7324 10.3262C20.4626 10.3203 20.1931 10.3262 19.9238 10.3438C19.6319 10.628 19.6436 10.8976 19.959 11.1523C19.5606 11.1758 19.1621 11.1758 18.7637 11.1523C19.4295 10.9289 19.7049 10.466 19.5898 9.76367C19.3257 9.04262 18.8159 8.77895 18.0605 8.97266C17.4928 9.24674 17.2643 9.6979 17.375 10.3262C17.4863 10.7656 17.7617 11.041 18.2012 11.1523C17.8027 11.1758 17.4043 11.1758 17.0059 11.1523C17.3212 10.8976 17.3329 10.628 17.041 10.3438C16.7718 10.3262 16.5022 10.3203 16.2324 10.3262C16.2324 10.1387 16.2324 9.95116 16.2324 9.76367C16.5022 9.76951 16.7718 9.76367 17.041 9.7461C17.2 9.59802 17.2645 9.41637 17.2344 9.20117C17.0773 9.00894 16.9074 8.82729 16.7246 8.65625C16.8477 8.53321 16.9707 8.41016 17.0938 8.28711C17.2648 8.46992 17.4464 8.63983 17.6387 8.79688C17.8539 8.82697 18.0355 8.76253 18.1836 8.60352C18.2012 8.33424 18.207 8.06471 18.2012 7.79492ZM18.3066 9.51758C18.9136 9.50904 19.1187 9.79029 18.9219 10.3613C18.7021 10.5902 18.4502 10.6312 18.166 10.4844C17.9371 10.2646 17.8961 10.0127 18.043 9.72852C18.1173 9.63637 18.2052 9.56606 18.3066 9.51758ZM11.627 11.7324C12.9983 11.7207 14.3694 11.7324 15.7402 11.7676C15.4707 12.3066 15.2012 12.8457 14.9316 13.3848C13.5605 13.4316 12.1895 13.4316 10.8184 13.3848C11.0979 12.8375 11.3674 12.2868 11.627 11.7324ZM16.7246 11.7324C18.0959 11.7207 19.467 11.7324 20.8379 11.7676C21.1074 12.3066 21.3769 12.8457 21.6465 13.3848C20.2754 13.4316 18.9043 13.4316 17.5332 13.3848C17.2537 12.8375 16.9842 12.2868 16.7246 11.7324ZM15.916 12.7168C15.957 14.457 15.9628 16.2031 15.9336 17.9551C14.9599 17.6779 13.9814 17.4143 12.998 17.1641C12.569 17.0848 12.1471 17.1141 11.7324 17.252C11.7324 16.1621 11.7324 15.0723 11.7324 13.9824C12.9044 13.9883 14.0762 13.9824 15.248 13.9648C15.2803 13.9517 15.3096 13.9341 15.3359 13.9121C15.5393 13.5172 15.7326 13.1188 15.916 12.7168ZM16.5137 12.7168C16.7267 13.1076 16.9318 13.506 17.1289 13.9121C17.1553 13.9341 17.1846 13.9517 17.2168 13.9648C18.3886 13.9824 19.5605 13.9883 20.7324 13.9824C20.7441 15.0374 20.7324 16.092 20.6973 17.1465C19.7797 17.6785 18.8597 18.2059 17.9375 18.7285C17.8279 18.6542 17.7283 18.5663 17.6387 18.4648C17.2794 18.3121 16.9103 18.189 16.5313 18.0957C16.5137 16.3028 16.5078 14.5098 16.5137 12.7168ZM8.35742 17.3574C8.91992 17.3574 9.48242 17.3574 10.0449 17.3574C10.0449 18.8574 10.0449 20.3574 10.0449 21.8574C9.48242 21.8574 8.91992 21.8574 8.35742 21.8574C8.35742 20.3574 8.35742 18.8574 8.35742 17.3574ZM21.0488 17.6387C21.4997 17.615 21.7282 17.826 21.7344 18.2715C21.7015 18.4018 21.637 18.5132 21.541 18.6055C19.8944 19.5636 18.2421 20.5128 16.584 21.4531C16.4262 21.5168 16.2622 21.552 16.0918 21.5586C14.6738 21.582 13.2558 21.582 11.8379 21.5586C11.6952 21.5466 11.5546 21.5232 11.416 21.4883C11.1539 21.3748 10.8961 21.2518 10.6426 21.1191C10.5959 20.1266 10.5959 19.1364 10.6426 18.1484C11.1868 18.0109 11.7318 17.8762 12.2773 17.7441C12.4345 17.7085 12.5927 17.7027 12.752 17.7266C14.2421 18.1178 15.7304 18.5162 17.2168 18.9219C17.5572 19.1576 17.61 19.4447 17.375 19.7832C17.2596 19.8848 17.1248 19.9434 16.9707 19.959C15.8429 19.671 14.7179 19.3721 13.5957 19.0625C13.209 18.9804 13.0625 19.1269 13.1563 19.502C13.2026 19.5718 13.2671 19.6128 13.3496 19.625C14.5508 19.961 15.7579 20.2716 16.9707 20.5566C17.6569 20.4916 18.0436 20.1166 18.1309 19.4316C18.1271 19.3985 18.1154 19.3692 18.0957 19.3438C19.086 18.7802 20.0704 18.2118 21.0488 17.6387ZM6.10742 17.9199C6.66992 17.9199 7.23242 17.9199 7.79492 17.9199C7.79492 19.0449 7.79492 20.1699 7.79492 21.2949C7.23242 21.2949 6.66992 21.2949 6.10742 21.2949C6.10742 20.1699 6.10742 19.0449 6.10742 17.9199Z" fill="black"/>
</g>
<defs>
<clipPath id="clip0_6_80277">
<rect width="18" height="18" fill="white" transform="translate(5 5)"/>
</clipPath>
</defs>
</svg>
