<svg width="100" height="100" viewBox="0 0 100 100" fill="none" xmlns="http://www.w3.org/2000/svg">
<circle cx="50" cy="50" r="50" fill="#4CAF4C"/>
<g clip-path="url(#clip0_6_81539)">
<path d="M70.7793 32.9744C69.7539 33.2967 69.7148 33.326 56.668 46.3729L43.8262 59.2049L38.0156 53.3943C32.6152 48.0135 32.1563 47.574 31.5508 47.2908C29.9981 46.5682 28.3477 46.7928 27.1172 47.9061C26.1406 48.785 25.6621 50.1912 25.8965 51.4607C26.1406 52.7693 25.9844 52.6033 34.0898 60.6795C41.1797 67.7498 41.6191 68.1697 42.2148 68.4334C42.9766 68.7654 44.0215 68.8631 44.7246 68.6775C45.916 68.3553 45.4082 68.8338 60.6328 53.6092C76.3945 37.8279 75.4961 38.7947 75.7402 37.3982C76.0723 35.4549 74.8516 33.5701 72.8887 32.9744C72.3418 32.8084 71.3066 32.8084 70.7793 32.9744Z" fill="white"/>
</g>
<defs>
<clipPath id="clip0_6_81539">
<rect width="50" height="50" fill="white" transform="translate(25.8086 25.8064)"/>
</clipPath>
</defs>
</svg>
