<svg width="40" height="40" viewBox="0 0 40 40" fill="none" xmlns="http://www.w3.org/2000/svg">
<g clip-path="url(#clip0_6_84629)">
<path opacity="0.985" fill-rule="evenodd" clip-rule="evenodd" d="M14.4922 -0.0390625C16.3151 -0.0390625 18.138 -0.0390625 19.9609 -0.0390625C19.9609 0.742188 19.9609 1.52344 19.9609 2.30469C18.2647 2.27002 16.572 2.30908 14.8828 2.42188C14.5573 2.53906 14.3359 2.76041 14.2187 3.08594C14.1192 3.60178 14.0801 4.12262 14.1015 4.64844C13.3203 4.64844 12.539 4.64844 11.7578 4.64844C11.4246 2.7655 12.0496 1.32019 13.6328 0.3125C13.9302 0.200904 14.2167 0.0837164 14.4922 -0.0390625Z" fill="#5B5F65"/>
<path fill-rule="evenodd" clip-rule="evenodd" d="M19.9609 -0.0390625C21.7838 -0.0390625 23.6068 -0.0390625 25.4297 -0.0390625C26.8347 0.36341 27.7331 1.27487 28.125 2.69531C28.1641 3.34584 28.177 3.99687 28.1641 4.64844C27.3828 4.64844 26.6016 4.64844 25.8203 4.64844C25.8417 4.12262 25.8027 3.60178 25.7031 3.08594C25.5859 2.76041 25.3646 2.53906 25.0391 2.42188C23.3498 2.30908 21.6572 2.27002 19.9609 2.30469C19.9609 1.52344 19.9609 0.742188 19.9609 -0.0390625Z" fill="#53565C"/>
<path opacity="0.996" fill-rule="evenodd" clip-rule="evenodd" d="M11.7578 4.64844C12.539 4.64844 13.3203 4.64844 14.1015 4.64844C16.0547 4.64844 18.0078 4.64844 19.9609 4.64844C19.9609 6.99219 19.9609 9.33594 19.9609 11.6797C15.1431 11.6927 10.3255 11.6797 5.5078 11.6406C5.26999 11.6123 5.03561 11.5732 4.80467 11.5234C3.5402 11.1051 2.74592 10.2457 2.42186 8.94531C2.16664 6.78492 3.06508 5.36565 5.11717 4.6875C7.33057 4.64844 9.54413 4.63542 11.7578 4.64844Z" fill="#7F838C"/>
<path fill-rule="evenodd" clip-rule="evenodd" d="M19.9609 4.64844C21.9141 4.64844 23.8672 4.64844 25.8203 4.64844C26.6016 4.64844 27.3828 4.64844 28.1641 4.64844C30.3777 4.63542 32.5913 4.64844 34.8047 4.6875C36.8568 5.36565 37.7552 6.78492 37.5 8.94531C37.1759 10.2457 36.3816 11.1051 35.1172 11.5234C34.8584 11.566 34.598 11.6051 34.3359 11.6406C29.5444 11.6797 24.7527 11.6927 19.9609 11.6797C19.9609 9.33594 19.9609 6.99219 19.9609 4.64844Z" fill="#757982"/>
<path opacity="0.996" fill-rule="evenodd" clip-rule="evenodd" d="M4.80469 11.5234C5.03563 11.5732 5.27 11.6123 5.50781 11.6406C10.3255 11.6797 15.1431 11.6927 19.9609 11.6797C19.9609 12.4609 19.9609 13.2422 19.9609 14.0234C19.3884 14.0555 19.0107 14.342 18.8281 14.8828C18.776 21.3932 18.776 27.9037 18.8281 34.4141C19.0107 34.9548 19.3884 35.2413 19.9609 35.2734C19.9609 36.8359 19.9609 38.3984 19.9609 39.9609C16.5234 39.9609 13.0859 39.9609 9.64844 39.9609C8.27773 39.5669 7.37926 38.6814 6.95312 37.3047C6.17663 28.716 5.46049 20.1223 4.80469 11.5234Z" fill="#C3C9D8"/>
<path fill-rule="evenodd" clip-rule="evenodd" d="M35.1172 11.5234C34.4614 20.1223 33.7452 28.716 32.9688 37.3047C32.5426 38.6814 31.6441 39.5669 30.2734 39.9609C26.8359 39.9609 23.3984 39.9609 19.9609 39.9609C19.9609 38.3984 19.9609 36.8359 19.9609 35.2734C20.5335 35.2413 20.9112 34.9548 21.0938 34.4141C21.1459 27.8776 21.1459 21.3412 21.0938 14.8047C20.8694 14.3214 20.4917 14.061 19.9609 14.0234C19.9609 13.2422 19.9609 12.4609 19.9609 11.6797C24.7527 11.6927 29.5444 11.6797 34.3359 11.6406C34.598 11.6051 34.8584 11.566 35.1172 11.5234Z" fill="#B7BECB"/>
<path fill-rule="evenodd" clip-rule="evenodd" d="M12.6172 14.0234C13.6151 13.9667 14.1229 14.4355 14.1406 15.4296C14.5541 21.7304 14.9188 28.0324 15.2344 34.3359C14.8532 35.2746 14.2152 35.4959 13.3203 34.9999C13.1695 34.8235 13.0523 34.6282 12.9688 34.414C12.5797 28.0196 12.176 21.6263 11.7578 15.2343C11.7879 14.6377 12.0744 14.234 12.6172 14.0234Z" fill="#A1A7B3"/>
<path fill-rule="evenodd" clip-rule="evenodd" d="M19.961 14.0234C19.961 21.1068 19.961 28.1901 19.961 35.2734C19.3884 35.2413 19.0107 34.9548 18.8281 34.4141C18.776 27.9037 18.776 21.3932 18.8281 14.8828C19.0107 14.342 19.3884 14.0555 19.961 14.0234Z" fill="#A1A7B3"/>
<path fill-rule="evenodd" clip-rule="evenodd" d="M19.9609 14.0234C20.4917 14.061 20.8694 14.3214 21.0938 14.8047C21.1459 21.3412 21.1459 27.8776 21.0938 34.4141C20.9112 34.9548 20.5335 35.2413 19.9609 35.2734C19.9609 28.1901 19.9609 21.1068 19.9609 14.0234Z" fill="#979CA7"/>
<path fill-rule="evenodd" clip-rule="evenodd" d="M26.6797 14.0235C27.5769 13.9496 28.0718 14.3532 28.164 15.2344C27.7421 21.6262 27.3384 28.0194 26.9531 34.4141C26.6224 35.1585 26.0625 35.406 25.2734 35.1563C24.8269 34.8492 24.6187 34.4195 24.6484 33.8672C25.0423 27.5385 25.446 21.2103 25.8594 14.8828C26.0151 14.4797 26.2886 14.1933 26.6797 14.0235Z" fill="#979CA7"/>
</g>
<defs>
<clipPath id="clip0_6_84629">
<rect width="40" height="40" fill="white"/>
</clipPath>
</defs>
</svg>
