<svg width="23" height="23" viewBox="0 0 23 23" fill="none" xmlns="http://www.w3.org/2000/svg">
<g clip-path="url(#clip0_6_81386)">
<path fill-rule="evenodd" clip-rule="evenodd" d="M22.0417 3.83325C22.0417 2.24544 20.7545 0.958252 19.1667 0.958252H3.83334C2.24553 0.958252 0.958344 2.24544 0.958344 3.83325V13.4166C0.958344 15.0044 2.24553 16.2916 3.83334 16.2916H4.79168C5.32094 16.2916 5.75001 15.8625 5.75001 15.3333C5.75001 14.804 5.32094 14.3749 4.79168 14.3749H3.83334C3.30408 14.3749 2.87501 13.9459 2.87501 13.4166V7.66658H20.125V13.4166C20.125 13.9459 19.696 14.3749 19.1667 14.3749H18.2083C17.6791 14.3749 17.25 14.804 17.25 15.3333C17.25 15.8625 17.6791 16.2916 18.2083 16.2916H19.1667C20.7545 16.2916 22.0417 15.0044 22.0417 13.4166V3.83325ZM20.125 5.74992V3.83325C20.125 3.30398 19.696 2.87492 19.1667 2.87492H3.83334C3.30408 2.87492 2.87501 3.30397 2.87501 3.83325V5.74992H20.125Z" fill="#0F0F0F"/>
<path d="M12.4583 21.0834C12.4583 21.6127 12.0293 22.0417 11.5 22.0417C10.9707 22.0417 10.5417 21.6127 10.5417 21.0834V15.7233L9.30268 16.9622C8.92839 17.3366 8.32166 17.3366 7.94736 16.9622C7.57313 16.5881 7.57313 15.9812 7.94736 15.6071L10.8219 12.7385C11.1962 12.3649 11.8025 12.3652 12.1765 12.7392L15.0506 15.6134C15.425 15.9877 15.425 16.5945 15.0506 16.9688C14.6764 17.3429 14.0696 17.3429 13.6954 16.9688L12.4583 15.7318V21.0834Z" fill="#0F0F0F"/>
</g>
<defs>
<clipPath id="clip0_6_81386">
<rect width="23" height="23" fill="white"/>
</clipPath>
</defs>
</svg>
